# xmcd
#
# Track frame offsets:
#	150
#	16350
#	37743
#	53211
#	72994
#	91156
#	106542
#	120576
#	137952
#
# Disc length: 2053 seconds
#
# Revision: 0
# Processed by: cddbd v1.5.2PL0 Copyright (c) Steve Scherf et al.
# Submitted via: audiograbber 1.83.01
#
DISCID=6b080309
DTITLE=Sanford Alligator Band - Gimme the money
DYEAR=2011
DGENRE=Soul
TTITLE0=Funky revenge
TTITLE1=Gimme the money
TTITLE2=I am not in love
TTITLE3=I try
TTITLE4=I'm yours baby
TTITLE5=In soul we trust
TTITLE6=Self destruction
TTITLE7=Soul villains
TTITLE8=Waiting so long
EXTD=
EXTT0=
EXTT1=
EXTT2=
EXTT3=
EXTT4=
EXTT5=
EXTT6=
EXTT7=
EXTT8=
PLAYORDER=
